# xmcd CD database file
#
# Track frame offsets:
#	150
#	37183
#	74083
#	109307
#
# Disc length: 1939 seconds
#
# Revision: 0
# Processed by: cddbd v1.5.2PL0 Copyright (c) Steve Scherf et al.
# Submitted via: CDex 1.70beta2
#
DISCID=3d079104
DTITLE=Various Artist - 目のマッサージCD
DYEAR=1900
DGENRE=New Age
TTITLE0=ラルゴ(ヘンデル作曲)を波音とともに 1
TTITLE1=響き合う虫たち
TTITLE2=ジ・エンターテイナー(ジョプリン作曲)
TTITLE3=目をほぐすおしゃべり
EXTD=
EXTT0=
EXTT1=
EXTT2=
EXTT3=
PLAYORDER=
